<svg xmlns="http://www.w3.org/2000/svg" xmlns:xlink="http://www.w3.org/1999/xlink" version="1.1" width="1000" height="1000" viewBox="0 0 1000 1000" xml:space="preserve">
<desc>Created with Fabric.js 3.5.0</desc>
<defs>
</defs>
<rect x="0" y="0" width="100%" height="100%" fill="rgba(255,255,255,0)"/>
<g transform="matrix(1.9531 0 0 1.9531 500.4936 500.4936)" id="361288">
<path style="stroke: none; stroke-width: 1; stroke-dasharray: none; stroke-linecap: butt; stroke-dashoffset: 0; stroke-linejoin: miter; stroke-miterlimit: 4; is-custom-font: none; font-file-url: none; fill: rgb(255,255,255); fill-rule: nonzero; opacity: 1;" vector-effect="non-scaling-stroke" transform=" translate(-256, -256)" d="M 464 256 A 208 208 0 1 0 48 256 a 208 208 0 1 0 416 0 z M 0 256 a 256 256 0 1 1 512 0 A 256 256 0 1 1 0 256 z" stroke-linecap="round"/>
</g>
<g transform="matrix(1 0 0 1 500 500)" id="718525">
<path style="stroke: none; stroke-width: 1; stroke-dasharray: none; stroke-linecap: butt; stroke-dashoffset: 0; stroke-linejoin: miter; stroke-miterlimit: 4; is-custom-font: none; font-file-url: none; fill: rgb(255,255,255); fill-rule: nonzero; opacity: 1;" vector-effect="non-scaling-stroke" transform=" translate(-256, -256)" d="M 416 398.9 c 58.5 -41.1 96 -104.1 96 -174.9 C 512 100.3 397.4 0 256 0 S 0 100.3 0 224 c 0 70.7 37.5 133.8 96 174.9 c 0 0.4 0 0.7 0 1.1 v 64 c 0 26.5 21.5 48 48 48 h 48 V 464 c 0 -8.8 7.2 -16 16 -16 s 16 7.2 16 16 v 48 h 64 V 464 c 0 -8.8 7.2 -16 16 -16 s 16 7.2 16 16 v 48 h 48 c 26.5 0 48 -21.5 48 -48 V 400 c 0 -0.4 0 -0.7 0 -1.1 z M 96 256 a 64 64 0 1 1 128 0 A 64 64 0 1 1 96 256 z m 256 -64 a 64 64 0 1 1 0 128 a 64 64 0 1 1 0 -128 z" stroke-linecap="round"/>
</g>
</svg>