<svg xmlns="http://www.w3.org/2000/svg" xmlns:xlink="http://www.w3.org/1999/xlink" version="1.1" width="1000" height="1000" viewBox="0 0 1000 1000" xml:space="preserve">
<desc>Created with Fabric.js 3.5.0</desc>
<defs>
</defs>
<rect x="0" y="0" width="100%" height="100%" fill="rgba(255,255,255,0)"/>
<g transform="matrix(1.9325 0 0 1.9325 498.6367 498.6367)" id="156337">
<path style="stroke: none; stroke-width: 1; stroke-dasharray: none; stroke-linecap: butt; stroke-dashoffset: 0; stroke-linejoin: miter; stroke-miterlimit: 4; is-custom-font: none; font-file-url: none; fill: rgb(255,255,255); fill-rule: nonzero; opacity: 1;" vector-effect="non-scaling-stroke" transform=" translate(-256, -256)" d="M 464 256 A 208 208 0 1 0 48 256 a 208 208 0 1 0 416 0 z M 0 256 a 256 256 0 1 1 512 0 A 256 256 0 1 1 0 256 z" stroke-linecap="round"/>
</g>
<g transform="matrix(1 0 0 1 500 500)" id="652235">
<path style="stroke: none; stroke-width: 1; stroke-dasharray: none; stroke-linecap: butt; stroke-dashoffset: 0; stroke-linejoin: miter; stroke-miterlimit: 4; is-custom-font: none; font-file-url: none; fill: rgb(255,255,255); fill-rule: nonzero; opacity: 1;" vector-effect="non-scaling-stroke" transform=" translate(-224, -256)" d="M 64 32 C 64 14.3 49.7 0 32 0 S 0 14.3 0 32 V 64 V 368 V 480 c 0 17.7 14.3 32 32 32 s 32 -14.3 32 -32 V 352 l 64.3 -16.1 c 41.1 -10.3 84.6 -5.5 122.5 13.4 c 44.2 22.1 95.5 24.8 141.7 7.4 l 34.7 -13 c 12.5 -4.7 20.8 -16.6 20.8 -30 V 66.1 c 0 -23 -24.2 -38 -44.8 -27.7 l -9.6 4.8 c -46.3 23.2 -100.8 23.2 -147.1 0 c -35.1 -17.6 -75.4 -22 -113.5 -12.5 L 64 48 V 32 z" stroke-linecap="round"/>
</g>
</svg>