<svg xmlns="http://www.w3.org/2000/svg" xmlns:xlink="http://www.w3.org/1999/xlink" version="1.1" width="1000" height="1000" viewBox="0 0 1000 1000" xml:space="preserve">
<desc>Created with Fabric.js 3.5.0</desc>
<defs>
</defs>
<rect x="0" y="0" width="100%" height="100%" fill="rgba(255,255,255,0)"/>
<g transform="matrix(1.9531 0 0 1.9531 500.4936 500.4936)" id="971785">
<path style="stroke: none; stroke-width: 1; stroke-dasharray: none; stroke-linecap: butt; stroke-dashoffset: 0; stroke-linejoin: miter; stroke-miterlimit: 4; is-custom-font: none; font-file-url: none; fill: rgb(255,255,255); fill-rule: nonzero; opacity: 1;" vector-effect="non-scaling-stroke" transform=" translate(-256, -256)" d="M 464 256 A 208 208 0 1 0 48 256 a 208 208 0 1 0 416 0 z M 0 256 a 256 256 0 1 1 512 0 A 256 256 0 1 1 0 256 z" stroke-linecap="round"/>
</g>
<g transform="matrix(1 0 0 1 500 500)" id="772533">
<path style="stroke: none; stroke-width: 1; stroke-dasharray: none; stroke-linecap: butt; stroke-dashoffset: 0; stroke-linejoin: miter; stroke-miterlimit: 4; is-custom-font: none; font-file-url: none; fill: rgb(255,255,255); fill-rule: nonzero; opacity: 1;" vector-effect="non-scaling-stroke" transform=" translate(-224, -256)" d="M 144 144 v 48 H 304 V 144 c 0 -44.2 -35.8 -80 -80 -80 s -80 35.8 -80 80 z M 80 192 V 144 C 80 64.5 144.5 0 224 0 s 144 64.5 144 144 v 48 h 16 c 35.3 0 64 28.7 64 64 V 448 c 0 35.3 -28.7 64 -64 64 H 64 c -35.3 0 -64 -28.7 -64 -64 V 256 c 0 -35.3 28.7 -64 64 -64 H 80 z" stroke-linecap="round"/>
</g>
</svg>