<svg xmlns="http://www.w3.org/2000/svg" xmlns:xlink="http://www.w3.org/1999/xlink" version="1.1" width="1000" height="1000" viewBox="0 0 1000 1000" xml:space="preserve">
<desc>Created with Fabric.js 3.5.0</desc>
<defs>
</defs>
<rect x="0" y="0" width="100%" height="100%" fill="rgba(255,255,255,0)"/>
<g transform="matrix(1.9531 0 0 1.9531 500.4936 500.4936)" id="378123">
<path style="stroke: none; stroke-width: 1; stroke-dasharray: none; stroke-linecap: butt; stroke-dashoffset: 0; stroke-linejoin: miter; stroke-miterlimit: 4; is-custom-font: none; font-file-url: none; fill: rgb(255,255,255); fill-rule: nonzero; opacity: 1;" vector-effect="non-scaling-stroke" transform=" translate(-256, -256)" d="M 464 256 A 208 208 0 1 0 48 256 a 208 208 0 1 0 416 0 z M 0 256 a 256 256 0 1 1 512 0 A 256 256 0 1 1 0 256 z" stroke-linecap="round"/>
</g>
<g transform="matrix(1 0 0 1 500 500)" id="491365">
<path style="stroke: none; stroke-width: 1; stroke-dasharray: none; stroke-linecap: butt; stroke-dashoffset: 0; stroke-linejoin: miter; stroke-miterlimit: 4; is-custom-font: none; font-file-url: none; fill: rgb(255,255,255); fill-rule: nonzero; opacity: 1;" vector-effect="non-scaling-stroke" transform=" translate(-256, -255.9863)" d="M 52.5 440.6 c -9.5 7.9 -22.8 9.7 -34.1 4.4 S 0 428.4 0 416 V 96 C 0 83.6 7.2 72.3 18.4 67 s 24.5 -3.6 34.1 4.4 L 224 214.3 V 256 v 41.7 L 52.5 440.6 z M 256 352 V 256 V 128 V 96 c 0 -12.4 7.2 -23.7 18.4 -29 s 24.5 -3.6 34.1 4.4 l 192 160 c 7.3 6.1 11.5 15.1 11.5 24.6 s -4.2 18.5 -11.5 24.6 l -192 160 c -9.5 7.9 -22.8 9.7 -34.1 4.4 s -18.4 -16.6 -18.4 -29 V 352 z" stroke-linecap="round"/>
</g>
</svg>