<svg xmlns="http://www.w3.org/2000/svg" xmlns:xlink="http://www.w3.org/1999/xlink" version="1.1" width="1000" height="1000" viewBox="0 0 1000 1000" xml:space="preserve">
<desc>Created with Fabric.js 3.5.0</desc>
<defs>
</defs>
<rect x="0" y="0" width="100%" height="100%" fill="rgba(255,255,255,0)"/>
<g transform="matrix(1.9531 0 0 1.9531 500.4936 500.4936)" id="257303">
<path style="stroke: none; stroke-width: 1; stroke-dasharray: none; stroke-linecap: butt; stroke-dashoffset: 0; stroke-linejoin: miter; stroke-miterlimit: 4; is-custom-font: none; font-file-url: none; fill: rgb(255,255,255); fill-rule: nonzero; opacity: 1;" vector-effect="non-scaling-stroke" transform=" translate(-256, -256)" d="M 464 256 A 208 208 0 1 0 48 256 a 208 208 0 1 0 416 0 z M 0 256 a 256 256 0 1 1 512 0 A 256 256 0 1 1 0 256 z" stroke-linecap="round"/>
</g>
<g transform="matrix(1 0 0 1 500 500)" id="200462">
<path style="stroke: none; stroke-width: 1; stroke-dasharray: none; stroke-linecap: butt; stroke-dashoffset: 0; stroke-linejoin: miter; stroke-miterlimit: 4; is-custom-font: none; font-file-url: none; fill: rgb(255,255,255); fill-rule: nonzero; opacity: 1;" vector-effect="non-scaling-stroke" transform=" translate(-160, -256)" d="M 80 160 c 0 -35.3 28.7 -64 64 -64 h 32 c 35.3 0 64 28.7 64 64 v 3.6 c 0 21.8 -11.1 42.1 -29.4 53.8 l -42.2 27.1 c -25.2 16.2 -40.4 44.1 -40.4 74 V 320 c 0 17.7 14.3 32 32 32 s 32 -14.3 32 -32 v -1.4 c 0 -8.2 4.2 -15.8 11 -20.2 l 42.2 -27.1 c 36.6 -23.6 58.8 -64.1 58.8 -107.7 V 160 c 0 -70.7 -57.3 -128 -128 -128 H 144 C 73.3 32 16 89.3 16 160 c 0 17.7 14.3 32 32 32 s 32 -14.3 32 -32 z m 80 320 a 40 40 0 1 0 0 -80 a 40 40 0 1 0 0 80 z" stroke-linecap="round"/>
</g>
</svg>