<svg xmlns="http://www.w3.org/2000/svg" xmlns:xlink="http://www.w3.org/1999/xlink" version="1.1" width="1000" height="1000" viewBox="0 0 1000 1000" xml:space="preserve">
<desc>Created with Fabric.js 3.5.0</desc>
<defs>
</defs>
<rect x="0" y="0" width="100%" height="100%" fill="rgba(255,255,255,0)"/>
<g transform="matrix(1.9531 0 0 1.9531 500.4936 500.4936)" id="216589">
<path style="stroke: none; stroke-width: 1; stroke-dasharray: none; stroke-linecap: butt; stroke-dashoffset: 0; stroke-linejoin: miter; stroke-miterlimit: 4; is-custom-font: none; font-file-url: none; fill: rgb(255,255,255); fill-rule: nonzero; opacity: 1;" vector-effect="non-scaling-stroke" transform=" translate(-256, -256)" d="M 464 256 A 208 208 0 1 0 48 256 a 208 208 0 1 0 416 0 z M 0 256 a 256 256 0 1 1 512 0 A 256 256 0 1 1 0 256 z" stroke-linecap="round"/>
</g>
<g transform="matrix(1 0 0 1 500 500)" id="803085">
<path style="stroke: none; stroke-width: 1; stroke-dasharray: none; stroke-linecap: butt; stroke-dashoffset: 0; stroke-linejoin: miter; stroke-miterlimit: 4; is-custom-font: none; font-file-url: none; fill: rgb(255,255,255); fill-rule: nonzero; opacity: 1;" vector-effect="non-scaling-stroke" transform=" translate(-291.325, -259.275)" d="M 290.7 57.4 L 57.4 290.7 c -25 25 -25 65.5 0 90.5 l 80 80 c 12 12 28.3 18.7 45.3 18.7 H 288 h 9.4 H 512 c 17.7 0 32 -14.3 32 -32 s -14.3 -32 -32 -32 H 387.9 L 518.6 285.3 c 25 -25 25 -65.5 0 -90.5 L 381.3 57.4 c -25 -25 -65.5 -25 -90.5 0 z M 297.4 416 H 288 l -105.4 0 l -80 -80 L 227.3 211.3 L 364.7 348.7 L 297.4 416 z" stroke-linecap="round"/>
</g>
</svg>